<svg xmlns="http://www.w3.org/2000/svg" xmlns:xlink="http://www.w3.org/1999/xlink" contentStyleType="text/css" data-diagram-type="SEQUENCE" height="287px" preserveAspectRatio="none" style="width:504px;height:287px;background:#FFFFFF;" version="1.1" viewBox="0 0 504 287" width="504px" zoomAndPan="magnify"><defs/><g><g><title>Bob</title><rect fill="#FFFFFF" fill-opacity="0.00000" height="125.3984" width="8" x="229.5283" y="81.2969"/><line style="stroke:#181818;stroke-width:0.5;stroke-dasharray:5.0,5.0;" x1="233" x2="233" y1="81.2969" y2="206.6953"/></g><g><title>This is [[http://plantuml.com/sequence Alice]] actor</title><rect fill="#FFFFFF" fill-opacity="0.00000" height="125.3984" width="8" x="383.2998" y="81.2969"/><line style="stroke:#181818;stroke-width:0.5;stroke-dasharray:5.0,5.0;" x1="386.8516" x2="386.8516" y1="81.2969" y2="206.6953"/></g><a href="http://plantuml.com/sequence" target="_top" title="http://plantuml.com/sequence" xlink:actuate="onRequest" xlink:href="http://plantuml.com/sequence" xlink:show="new" xlink:title="http://plantuml.com/sequence" xlink:type="simple"><text fill="#000000" font-family="sans-serif" font-size="14" lengthAdjust="spacing" textLength="27.0566" x="217" y="77.9951">Bob</text><ellipse cx="233.5283" cy="13.5" fill="#E2E2F0" rx="8" ry="8" style="stroke:#181818;stroke-width:0.5;"/><path d="M233.5283,21.5 L233.5283,48.5 M220.5283,29.5 L246.5283,29.5 M233.5283,48.5 L220.5283,63.5 M233.5283,48.5 L246.5283,63.5 " fill="#FFFFFF" fill-opacity="0.00000" style="stroke:#181818;stroke-width:0.5;"/><text fill="#000000" font-family="sans-serif" font-size="14" lengthAdjust="spacing" textLength="27.0566" x="217" y="218.6904">Bob</text><ellipse cx="233.5283" cy="230.4922" fill="#E2E2F0" rx="8" ry="8" style="stroke:#181818;stroke-width:0.5;"/><path d="M233.5283,238.4922 L233.5283,265.4922 M220.5283,246.4922 L246.5283,246.4922 M233.5283,265.4922 L220.5283,280.4922 M233.5283,265.4922 L246.5283,280.4922 " fill="#FFFFFF" fill-opacity="0.00000" style="stroke:#181818;stroke-width:0.5;"/></a><text fill="#000000" font-family="sans-serif" font-size="14" lengthAdjust="spacing" textLength="44.2422" x="322.8516" y="77.9951">This is</text><a href="http://plantuml.com/sequence" target="_top" title="http://plantuml.com/sequence" xlink:actuate="onRequest" xlink:href="http://plantuml.com/sequence" xlink:show="new" xlink:title="http://plantuml.com/sequence" xlink:type="simple"><text fill="#0000FF" font-family="sans-serif" font-size="14" lengthAdjust="spacing" text-decoration="underline" textLength="33.667" x="371.5439" y="77.9951">Alice</text></a><text fill="#000000" font-family="sans-serif" font-size="14" lengthAdjust="spacing" textLength="36.0869" x="409.6611" y="77.9951">actor</text><ellipse cx="387.2998" cy="13.5" fill="#E2E2F0" rx="8" ry="8" style="stroke:#181818;stroke-width:0.5;"/><path d="M387.2998,21.5 L387.2998,48.5 M374.2998,29.5 L400.2998,29.5 M387.2998,48.5 L374.2998,63.5 M387.2998,48.5 L400.2998,63.5 " fill="#FFFFFF" fill-opacity="0.00000" style="stroke:#181818;stroke-width:0.5;"/><text fill="#000000" font-family="sans-serif" font-size="14" lengthAdjust="spacing" textLength="44.2422" x="322.8516" y="218.6904">This is</text><a href="http://plantuml.com/sequence" target="_top" title="http://plantuml.com/sequence" xlink:actuate="onRequest" xlink:href="http://plantuml.com/sequence" xlink:show="new" xlink:title="http://plantuml.com/sequence" xlink:type="simple"><text fill="#0000FF" font-family="sans-serif" font-size="14" lengthAdjust="spacing" text-decoration="underline" textLength="33.667" x="371.5439" y="218.6904">Alice</text></a><text fill="#000000" font-family="sans-serif" font-size="14" lengthAdjust="spacing" textLength="36.0869" x="409.6611" y="218.6904">actor</text><ellipse cx="387.2998" cy="230.4922" fill="#E2E2F0" rx="8" ry="8" style="stroke:#181818;stroke-width:0.5;"/><path d="M387.2998,238.4922 L387.2998,265.4922 M374.2998,246.4922 L400.2998,246.4922 M387.2998,265.4922 L374.2998,280.4922 M387.2998,265.4922 L400.2998,280.4922 " fill="#FFFFFF" fill-opacity="0.00000" style="stroke:#181818;stroke-width:0.5;"/><a href="http://plantuml.com/start" target="_top" title="http://plantuml.com/start" xlink:actuate="onRequest" xlink:href="http://plantuml.com/start" xlink:show="new" xlink:title="http://plantuml.com/start" xlink:type="simple"><polygon fill="#181818" points="375.2998,111.4297,385.2998,115.4297,375.2998,119.4297,379.2998,115.4297" style="stroke:#181818;stroke-width:1;"/><line style="stroke:#181818;stroke-width:1;" x1="233.5283" x2="381.2998" y1="115.4297" y2="115.4297"/><text fill="#000000" font-family="sans-serif" font-size="13" lengthAdjust="spacing" textLength="31.4146" x="240.5283" y="110.3638">hello</text></a><a href="http://plantuml.com/start" target="_top" title="http://plantuml.com/start" xlink:actuate="onRequest" xlink:href="http://plantuml.com/start" xlink:show="new" xlink:title="http://plantuml.com/start" xlink:type="simple"><path d="M95,96.2969 L95,121.2969 L228,121.2969 L228,106.2969 L218,96.2969 L95,96.2969 " fill="#FEFFDD" style="stroke:#181818;stroke-width:0.5;"/><path d="M218,96.2969 L218,106.2969 L228,106.2969 L218,96.2969 " fill="#FEFFDD" style="stroke:#181818;stroke-width:0.5;"/><text fill="#000000" font-family="sans-serif" font-size="13" lengthAdjust="spacing" textLength="112.3218" x="101" y="113.3638">a note with a link</text></a><a href="http://plantuml.com/start" target="_top" title="http://plantuml.com/start" xlink:actuate="onRequest" xlink:href="http://plantuml.com/start" xlink:show="new" xlink:title="http://plantuml.com/start" xlink:type="simple"><polygon fill="#181818" points="244.5283,146.5625,234.5283,150.5625,244.5283,154.5625,240.5283,150.5625" style="stroke:#181818;stroke-width:1;"/><line style="stroke:#181818;stroke-width:1;" x1="238.5283" x2="386.2998" y1="150.5625" y2="150.5625"/><text fill="#000000" font-family="sans-serif" font-size="13" lengthAdjust="spacing" textLength="63.1274" x="250.5283" y="145.4966">hello with</text></a><a href="http://plantuml.com/start" target="_top" title="Tooltip for message" xlink:actuate="onRequest" xlink:href="http://plantuml.com/start" xlink:show="new" xlink:title="Tooltip for message" xlink:type="simple"><text fill="#0000FF" font-family="sans-serif" font-size="13" lengthAdjust="spacing" text-decoration="underline" textLength="62.5117" x="317.7881" y="145.4966">some link</text></a><a href="http://plantuml.com/start" target="_top" title="http://plantuml.com/start" xlink:actuate="onRequest" xlink:href="http://plantuml.com/start" xlink:show="new" xlink:title="http://plantuml.com/start" xlink:type="simple"><path d="M392,131.4297 L392,156.4297 L497,156.4297 L497,141.4297 L487,131.4297 L392,131.4297 " fill="#FEFFDD" style="stroke:#181818;stroke-width:0.5;"/><path d="M487,131.4297 L487,141.4297 L497,141.4297 L487,131.4297 " fill="#FEFFDD" style="stroke:#181818;stroke-width:0.5;"/><text fill="#000000" font-family="sans-serif" font-size="13" lengthAdjust="spacing" textLength="84.2588" x="398" y="148.4966">another note</text></a><path d="M5,166.5625 L5,191.5625 L229,191.5625 L229,176.5625 L219,166.5625 L5,166.5625 " fill="#FEFFDD" style="stroke:#181818;stroke-width:0.5;"/><path d="M219,166.5625 L219,176.5625 L229,176.5625 L219,166.5625 " fill="#FEFFDD" style="stroke:#181818;stroke-width:0.5;"/><text fill="#000000" font-family="sans-serif" font-size="13" lengthAdjust="spacing" textLength="78.7617" x="11" y="183.6294">You can use</text><a href="http://plantuml.com/start" target="_top" title="http://plantuml.com/start" xlink:actuate="onRequest" xlink:href="http://plantuml.com/start" xlink:show="new" xlink:title="http://plantuml.com/start" xlink:type="simple"><text fill="#0000FF" font-family="sans-serif" font-size="13" lengthAdjust="spacing" text-decoration="underline" textLength="85.9409" x="93.894" y="183.6294">links in notes</text></a><text fill="#000000" font-family="sans-serif" font-size="13" lengthAdjust="spacing" textLength="30.437" x="183.9673" y="183.6294">also.</text><!--SRC=[XL6xhi8m3Dtp5HOxT6T0WczWGOZ1jxWamerBxUeEY7yd3mGJHSgGMEVfO6iomax-u7ZqPiEwQGR6Q5FFgrRwHkasKMpfT79Oe8kz3mhfpEDXoo6peB0MW5edBbijD_NnJSDmj4HTWoTcSL6CWAcpURm3G2ZO_s0-tJd4gwDuBaDN7PDrJl2IhiWPrVjUX2qCqANgFQdYXHwWqbDHJwR5S0mNRp_ROC9w6ckSJodfSYHta0bQZ33fx5wAR_g0M6GqRvXLLk-UJm00]--></g></svg>